<svg width="512pt" height="512pt" viewBox="0 0 512 512" version="1.1" xmlns="http://www.w3.org/2000/svg">
<path fill="inherit" d=" M 218.59 38.38 C 229.63 33.87 242.87 35.49 252.55 42.45 C 256.81 45.77 260.76 49.68 263.47 54.38 C 268.92 64.01 269.35 75.98 265.35 86.22 C 308.16 128.99 350.87 171.86 393.76 214.55 C 400.84 212.29 408.47 210.86 415.81 212.74 C 429.84 215.74 441.39 228.01 443.70 242.14 C 444.64 250.04 444.13 258.69 439.38 265.39 C 436.77 269.04 433.83 272.47 430.76 275.75 C 410.43 296.74 389.63 317.27 368.89 337.87 C 361.21 345.20 354.02 353.13 345.39 359.38 C 338.65 364.21 329.93 364.59 321.98 363.72 C 311.32 361.92 301.97 354.78 296.50 345.59 C 290.94 335.96 290.73 324.03 294.58 313.75 C 279.15 298.29 263.73 282.81 248.20 267.44 C 209.13 309.94 169.89 352.28 130.74 394.69 C 112.98 413.60 95.88 433.14 77.29 451.27 C 74.44 454.17 70.91 456.36 67.10 457.77 C 62.01 459.91 56.38 458.75 51.03 459.04 C 43.56 459.48 36.83 455.17 31.44 450.43 C 26.71 445.93 22.92 440.26 21.31 433.89 C 20.29 423.80 19.79 412.16 27.22 404.18 C 35.41 396.08 43.37 387.71 52.10 380.19 C 67.64 365.33 83.62 350.94 99.33 336.27 C 137.06 301.43 174.74 266.54 212.55 231.80 C 197.18 216.24 181.65 200.84 166.22 185.35 C 155.32 189.62 142.42 188.90 132.57 182.36 C 124.38 176.67 117.87 168.00 116.27 157.99 C 115.50 150.55 115.69 142.48 119.77 135.93 C 122.47 131.70 125.89 127.98 129.25 124.26 C 153.93 98.90 179.08 74.00 204.38 49.26 C 208.97 45.46 212.87 40.52 218.59 38.38 M 226.37 52.51 C 223.06 53.45 220.01 55.24 217.58 57.68 C 190.76 83.83 164.71 110.74 138.13 137.14 C 132.26 142.56 130.11 151.52 132.95 159.01 C 135.54 166.14 142.36 171.53 149.96 172.14 C 155.73 172.88 161.62 170.74 165.83 166.79 C 192.90 140.19 219.58 113.19 246.37 86.31 C 254.39 78.69 254.15 64.52 245.87 57.19 C 240.78 52.34 233.12 50.49 226.37 52.51 M 179.07 176.00 C 191.38 188.32 203.69 200.61 216.00 212.92 C 241.64 187.29 267.28 161.65 292.92 136.01 C 280.63 123.75 268.46 111.38 255.99 99.31 C 230.21 124.73 204.68 150.40 179.07 176.00 M 227.08 224.00 C 236.72 233.64 246.35 243.29 256.00 252.92 C 281.64 227.29 307.29 201.66 332.91 176.01 C 323.30 166.41 313.78 156.72 304.00 147.30 C 278.21 172.73 252.68 198.40 227.08 224.00 M 267.07 264.01 C 279.38 276.31 291.69 288.62 304.00 300.92 C 329.65 275.29 355.28 249.65 380.91 224.01 C 368.64 211.74 356.45 199.39 344.00 187.30 C 318.21 212.73 292.68 238.40 267.07 264.01 M 402.34 228.49 C 396.34 230.00 392.35 234.98 388.14 239.13 C 365.34 261.67 342.74 284.41 320.13 307.14 C 317.36 310.02 314.31 312.66 311.79 315.78 C 307.11 321.74 306.43 330.39 309.84 337.11 C 313.02 343.52 319.83 347.98 326.99 348.23 C 332.39 348.51 337.88 346.55 341.81 342.83 C 368.98 316.00 395.92 288.93 422.82 261.82 C 426.56 257.90 428.54 252.43 428.25 247.03 C 428.01 239.84 423.53 233.01 417.10 229.84 C 412.58 227.56 407.20 227.11 402.34 228.49 M 42.38 410.52 C 36.43 415.56 34.53 424.37 37.21 431.59 C 39.98 438.71 47.21 444.17 54.99 443.91 C 60.74 444.09 66.32 441.39 70.01 437.03 C 125.70 376.79 181.28 316.45 236.96 256.20 C 232.60 251.79 228.27 247.35 223.75 243.10 C 163.23 298.84 102.82 354.70 42.38 410.52 Z" />
<path fill="inherit" d=" M 442.50 298.16 C 450.35 290.29 458.18 282.40 466.10 274.60 C 469.88 278.21 473.51 281.98 477.32 285.56 C 469.44 293.54 461.46 301.43 453.51 309.34 C 449.93 305.52 446.27 301.78 442.50 298.16 Z" />
<path fill="inherit" d=" M 447.98 329.93 C 448.63 329.28 449.29 328.63 449.95 327.98 C 459.01 328.06 468.08 327.91 477.15 328.04 C 478.80 327.82 479.61 329.68 479.83 331.01 C 480.20 334.63 479.93 338.28 480.01 341.92 C 479.31 342.62 478.62 343.31 477.93 344.01 C 467.95 343.98 457.98 344.01 448.00 344.00 C 447.99 339.31 448.01 334.62 447.98 329.93 Z" />
<path fill="inherit" d=" M 453.65 362.62 C 461.58 370.47 469.69 378.17 477.24 386.40 C 473.55 389.95 469.93 393.57 466.39 397.26 C 458.13 389.76 450.53 381.55 442.56 373.74 C 446.23 370.00 449.91 366.28 453.65 362.62 Z" />
<path fill="inherit" d=" M 341.96 415.86 C 347.06 412.49 352.85 410.00 358.90 409.06 C 385.59 408.41 412.28 408.97 438.97 408.95 C 444.73 408.84 450.07 411.48 455.01 414.18 C 467.82 420.84 476.47 434.05 479.32 448.00 C 483.46 447.80 487.61 448.04 491.65 449.07 C 492.77 450.11 493.89 451.18 494.97 452.29 C 496.44 465.33 496.43 478.56 494.97 491.62 C 492.88 494.37 489.69 496.36 486.12 496.01 C 426.88 495.75 367.61 496.68 308.39 495.06 C 307.25 494.05 305.49 493.39 305.19 491.74 C 303.47 478.71 303.57 465.44 305.03 452.38 C 308.58 447.24 315.25 447.91 320.72 448.00 C 322.49 440.31 325.13 432.45 330.63 426.58 C 334.17 422.78 337.84 419.04 341.96 415.86 M 336.92 447.97 C 378.97 448.03 421.02 448.00 463.07 447.99 C 460.28 437.49 451.98 428.70 441.63 425.40 C 435.92 423.68 429.90 424.01 424.01 424.00 C 405.34 424.01 386.66 424.01 367.98 423.99 C 353.72 423.70 340.48 434.28 336.92 447.97 M 320.00 464.00 C 320.00 469.33 320.00 474.66 320.00 480.00 C 373.33 480.00 426.67 480.00 480.00 480.00 C 480.00 474.66 480.00 469.33 480.00 464.00 C 426.67 464.00 373.33 464.00 320.00 464.00 Z" />
</svg>
