<svg width="512pt" height="512pt" viewBox="0 0 512 512" version="1.1" xmlns="http://www.w3.org/2000/svg">
<path fill="inherit" d=" M 220.77 49.76 C 225.54 41.44 234.08 35.76 243.21 33.24 C 251.46 32.04 259.87 32.41 268.14 33.15 C 277.50 35.48 286.47 41.16 291.24 49.73 C 296.18 57.84 297.45 67.85 295.80 77.10 C 293.76 85.38 289.01 92.61 285.06 100.07 C 278.14 112.70 270.92 125.19 264.13 137.88 C 263.80 146.87 264.10 155.89 264.00 164.89 C 273.01 173.94 282.03 182.98 291.07 192.00 C 303.06 192.00 315.04 192.00 327.03 191.99 C 329.19 191.87 331.40 192.42 333.04 193.89 C 368.99 229.96 405.06 265.94 441.05 301.98 C 459.51 320.50 478.06 338.93 496.20 357.77 C 499.06 360.98 502.28 364.04 503.94 368.10 C 502.52 372.24 499.24 375.24 496.32 378.33 C 473.70 401.70 450.48 424.48 427.53 447.52 C 419.69 455.33 411.86 463.15 403.87 470.80 C 400.22 474.27 396.71 478.08 392.03 480.18 C 387.49 478.84 384.42 475.12 381.07 472.03 C 371.30 462.47 361.70 452.73 352.00 443.10 C 351.92 451.78 352.17 460.46 351.84 469.14 C 351.54 472.24 351.66 475.95 348.98 478.11 C 346.62 480.49 343.03 479.95 340.00 480.02 C 284.32 479.98 228.63 480.00 172.95 480.01 C 169.59 479.89 165.63 480.69 163.00 478.05 C 160.24 475.96 160.42 472.17 160.12 469.08 C 159.86 460.42 160.07 451.76 159.99 443.11 C 148.93 454.01 138.15 465.21 126.86 475.88 C 124.95 477.87 122.57 479.27 119.97 480.17 C 116.66 478.65 113.83 476.32 111.24 473.78 C 94.88 458.14 79.01 442.01 62.97 426.05 C 46.67 409.66 30.17 393.46 14.20 376.75 C 11.66 374.17 9.34 371.34 7.82 368.02 C 9.99 363.69 13.46 360.25 16.73 356.76 C 39.87 332.89 63.50 309.50 86.97 285.96 C 116.63 256.28 146.32 226.64 175.96 196.94 C 178.17 194.78 180.41 191.83 183.86 192.03 C 196.20 191.95 208.54 192.02 220.88 192.01 C 229.94 183.00 238.97 173.97 248.00 164.93 C 247.90 155.93 248.20 146.92 247.86 137.93 C 240.36 123.93 232.43 110.15 224.84 96.20 C 221.53 90.01 217.83 83.87 216.20 76.97 C 214.57 67.76 215.87 57.83 220.77 49.76 M 233.19 59.23 C 229.57 65.09 230.00 72.74 233.31 78.63 C 240.79 92.28 248.33 105.90 255.98 119.46 C 263.25 107.13 269.85 94.42 276.90 81.97 C 279.40 77.75 281.63 73.09 281.41 68.06 C 281.27 60.48 275.96 54.01 269.74 50.22 C 263.67 46.96 256.55 48.19 249.95 48.05 C 242.73 48.26 236.94 53.50 233.19 59.23 M 176.00 259.11 C 176.01 327.40 175.99 395.70 176.00 464.00 C 229.33 464.00 282.67 464.00 336.00 464.00 C 336.00 395.69 335.99 327.39 336.00 259.08 C 309.36 232.48 282.86 205.75 256.00 179.38 C 229.13 205.75 202.63 232.50 176.00 259.11 M 187.32 208.00 C 134.01 261.34 80.63 314.60 27.38 368.00 C 58.20 398.92 89.07 429.80 120.00 460.61 C 133.39 447.36 146.66 433.98 160.00 420.67 C 160.00 409.56 160.00 398.44 160.00 387.32 C 149.02 398.28 138.06 409.25 127.09 420.22 C 125.14 422.23 122.44 423.86 119.54 423.55 C 116.00 423.10 113.27 420.57 110.84 418.16 C 96.01 403.29 81.12 388.47 66.30 373.60 C 63.23 370.68 63.23 365.31 66.31 362.40 C 97.51 331.13 128.79 299.93 160.00 268.68 C 160.08 264.09 159.82 259.50 160.10 254.92 C 160.22 252.92 161.44 251.24 162.80 249.88 C 176.76 235.93 190.72 221.97 204.67 208.00 C 198.89 208.00 193.10 208.00 187.32 208.00 M 307.33 208.00 C 321.28 221.97 335.24 235.94 349.21 249.88 C 350.58 251.25 351.78 252.94 351.90 254.94 C 352.17 259.51 351.91 264.09 352.00 268.67 C 383.22 299.94 414.51 331.14 445.70 362.42 C 448.77 365.34 448.77 370.72 445.67 373.63 C 429.66 389.68 413.63 405.72 397.57 421.72 C 394.43 425.16 388.93 424.25 385.90 421.15 C 374.54 409.95 363.32 398.59 352.01 387.33 C 351.99 398.45 352.01 409.56 352.00 420.68 C 365.34 433.99 378.61 447.37 392.00 460.62 C 422.93 429.80 453.80 398.93 484.62 368.00 C 431.37 314.61 377.99 261.34 324.68 208.00 C 318.89 208.00 313.11 208.00 307.33 208.00 M 83.38 368.00 C 95.54 380.26 107.74 392.47 120.00 404.62 C 133.40 391.37 146.67 377.98 160.02 364.67 C 159.98 340.22 160.01 315.77 160.00 291.32 C 134.46 316.88 108.85 342.38 83.38 368.00 M 352.01 291.33 C 351.99 315.77 352.01 340.22 352.00 364.67 C 365.33 377.99 378.61 391.36 392.00 404.62 C 404.26 392.47 416.47 380.26 428.62 368.00 C 403.15 342.38 377.54 316.89 352.01 291.33 Z" />
<path fill="inherit" d=" M 247.44 217.41 C 256.07 215.49 265.89 216.31 273.16 221.74 C 279.60 226.39 285.08 233.01 286.83 240.89 C 287.68 248.01 287.93 255.78 284.16 262.17 C 278.39 271.96 267.95 280.25 256.02 279.33 C 245.10 280.18 235.24 273.27 229.33 264.58 C 225.49 259.24 224.29 252.53 224.29 246.09 C 225.07 232.97 235.23 221.49 247.44 217.41 M 252.25 232.23 C 247.33 233.05 242.81 236.40 241.15 241.19 C 238.57 248.09 239.92 257.28 246.47 261.50 C 252.92 265.36 262.17 265.01 267.75 259.72 C 273.18 253.98 273.39 244.36 269.13 237.90 C 265.48 232.52 258.27 231.29 252.25 232.23 Z" />
<path fill="inherit" d=" M 248.00 304.00 C 253.33 304.00 258.66 304.00 264.00 304.00 C 264.01 309.71 263.99 315.41 264.01 321.12 C 277.25 325.43 287.39 337.97 288.12 351.99 C 282.79 351.90 277.34 352.50 272.15 350.98 C 271.71 346.37 270.10 341.56 266.07 338.87 C 259.26 334.36 248.74 334.85 243.32 341.33 C 238.73 347.40 238.80 356.61 243.33 362.70 C 246.32 366.48 251.32 368.07 256.01 367.99 C 273.25 368.49 289.01 384.36 287.66 401.90 C 286.73 415.30 276.60 426.83 264.01 430.88 C 263.99 436.58 264.01 442.29 264.00 448.00 C 258.66 448.00 253.33 448.00 248.00 448.00 C 247.99 442.29 248.01 436.59 247.99 430.89 C 234.72 426.59 224.60 414.05 223.88 400.01 C 229.21 400.10 234.66 399.49 239.85 401.02 C 240.30 405.39 241.68 409.97 245.37 412.70 C 252.32 417.92 263.88 417.25 269.18 409.98 C 273.07 404.13 273.07 395.85 269.18 390.00 C 266.30 385.75 260.96 383.89 255.99 384.01 C 238.84 383.52 222.93 367.64 224.42 350.15 C 224.96 336.66 235.69 325.42 247.99 321.12 C 248.01 315.41 247.99 309.71 248.00 304.00 Z" />
</svg>
